<?xml version="1.0" standalone="no"?>
<!DOCTYPE svg PUBLIC "-//W3C//DTD SVG 20010904//EN"
 "http://www.w3.org/TR/2001/REC-SVG-20010904/DTD/svg10.dtd">
<svg version="1.0" xmlns="http://www.w3.org/2000/svg"
 width="206.000000pt" height="206.000000pt" viewBox="0 0 206.000000 206.000000"
 preserveAspectRatio="xMidYMid meet">
<metadata>
Created by potrace 1.14, written by Peter Selinger 2001-2017
</metadata>
<g transform="translate(0.000000,206.000000) scale(0.100000,-0.100000)"
fill="#000000" stroke="none">
<path d="M970 1984 c-33 -24 -871 -863 -893 -894 -19 -27 -22 -81 -7 -110 16
-31 346 -360 361 -361 42 -4 400 2 431 7 40 6 68 37 68 76 0 32 -1 33 -155
189 l-139 140 327 327 c193 193 327 336 328 347 1 11 2 27 3 35 3 37 -21 72
-108 159 -89 89 -97 94 -143 98 -35 3 -54 0 -73 -13z"/>
<path d="M1200 1427 c-37 -9 -62 -53 -52 -90 4 -14 69 -89 145 -166 75 -76
137 -143 137 -148 0 -4 -140 -148 -311 -318 -171 -171 -317 -322 -325 -337 -8
-15 -14 -43 -14 -63 0 -32 11 -47 92 -131 125 -129 159 -145 225 -104 53 32
893 878 908 913 27 66 15 84 -171 274 l-174 178 -215 0 c-118 0 -228 -3 -245
-8z"/>
<path d="M1193 1170 c82 -14 96 -39 50 -90 -26 -28 -126 -65 -145 -53 -12 6
18 46 51 68 31 20 48 55 28 55 -19 0 -33 -12 -65 -53 -17 -21 -34 -38 -37 -37
-10 2 -85 -147 -85 -168 0 -9 11 3 23 28 12 25 32 56 43 68 l22 23 38 -33 c22
-18 41 -35 44 -38 11 -11 52 -31 56 -27 3 2 -8 12 -23 23 -48 31 -78 76 -53
79 30 5 126 53 142 71 26 29 13 60 -33 78 -22 9 -54 15 -72 15 -26 -1 -23 -3
16 -9z"/>
<path d="M911 1158 c-74 -21 -142 -95 -147 -159 -2 -32 2 -42 21 -55 41 -27
128 -2 170 47 20 24 20 24 0 9 -11 -8 -23 -19 -26 -23 -9 -12 -91 -33 -116
-29 -58 9 -23 119 53 165 48 29 76 35 110 24 15 -5 21 -3 21 8 0 8 -3 15 -6
16 -3 0 -15 2 -26 4 -11 1 -35 -2 -54 -7z"/>
<path d="M1090 1159 c-54 -22 -81 -69 -39 -69 15 0 19 5 14 19 -6 21 7 34 50
49 17 6 23 10 15 11 -8 0 -26 -5 -40 -10z"/>
</g>
</svg>
